<svg width="49" height="49" viewBox="0 0 49 49" fill="#ff2c64" xmlns="http://www.w3.org/2000/svg">
<path d="M48.7188 24.25C48.7188 37.6289 37.7812 48.4688 24.5 48.4688C11.1211 48.4688 0.28125 37.6289 0.28125 24.25C0.28125 10.9688 11.1211 0.03125 24.5 0.03125C37.7812 0.03125 48.7188 10.9688 48.7188 24.25ZM21.668 37.1406L39.6367 19.1719C40.2227 18.5859 40.2227 17.5117 39.6367 16.9258L37.3906 14.7773C36.8047 14.0938 35.8281 14.0938 35.2422 14.7773L20.5938 29.4258L13.6602 22.5898C13.0742 21.9062 12.0977 21.9062 11.5117 22.5898L9.26562 24.7383C8.67969 25.3242 8.67969 26.3984 9.26562 26.9844L19.4219 37.1406C20.0078 37.7266 21.082 37.7266 21.668 37.1406Z" fill="#FF2C64"/>
</svg>
